<svg width="23" height="24" viewBox="0 0 23 24" fill="none" xmlns="http://www.w3.org/2000/svg">
<path d="M11.5 23.5C14.55 23.5 17.4751 22.2884 19.6317 20.1317C21.7884 17.9751 23 15.05 23 12C23 8.95001 21.7884 6.02494 19.6317 3.86827C17.4751 1.7116 14.55 0.5 11.5 0.5C8.45001 0.5 5.52494 1.7116 3.36827 3.86827C1.2116 6.02494 0 8.95001 0 12C0 15.05 1.2116 17.9751 3.36827 20.1317C5.52494 22.2884 8.45001 23.5 11.5 23.5ZM16.5762 9.88867L10.8262 15.6387C10.4039 16.0609 9.72109 16.0609 9.30332 15.6387L6.42832 12.7637C6.00605 12.3414 6.00605 11.6586 6.42832 11.2408C6.85059 10.823 7.5334 10.8186 7.95117 11.2408L10.0625 13.3521L15.0488 8.36133C15.4711 7.93906 16.1539 7.93906 16.5717 8.36133C16.9895 8.78359 16.9939 9.46641 16.5717 9.88418L16.5762 9.88867Z" fill="#FF6633"/>
</svg>
