<svg width="29" height="28" viewBox="0 0 29 28" fill="none" xmlns="http://www.w3.org/2000/svg">
<path d="M0.15332 14C0.15332 10.287 1.62832 6.72601 4.25383 4.10051C6.87933 1.475 10.4403 0 14.1533 0C17.8664 0 21.4273 1.475 24.0528 4.10051C26.6783 6.72601 28.1533 10.287 28.1533 14C28.1533 17.713 26.6783 21.274 24.0528 23.8995C21.4273 26.525 17.8664 28 14.1533 28C10.4403 28 6.87933 26.525 4.25383 23.8995C1.62832 21.274 0.15332 17.713 0.15332 14ZM10.451 8.04453C10.0354 8.27422 9.77832 8.71719 9.77832 9.1875V18.8125C9.77832 19.2883 10.0354 19.7258 10.451 19.9555C10.8666 20.1852 11.3697 20.1797 11.7799 19.9281L19.6549 15.1156C20.0432 14.875 20.2838 14.4539 20.2838 13.9945C20.2838 13.5352 20.0432 13.1141 19.6549 12.8734L11.7799 8.06094C11.3752 7.81484 10.8666 7.80391 10.451 8.03359V8.04453Z" fill="#7D8FB3"/>
</svg>
